<svg xmlns="http://www.w3.org/2000/svg" xmlns:xlink="http://www.w3.org/1999/xlink" width="800" zoomAndPan="magnify" viewBox="0 0 600 599.999999" height="800" preserveAspectRatio="xMidYMid meet" version="1.0"><defs><clipPath id="1fcfc4da42"><path d="M 24.4375 24.4375 L 575.300781 24.4375 L 575.300781 575.300781 L 24.4375 575.300781 Z M 24.4375 24.4375 " clip-rule="nonzero"/></clipPath><clipPath id="9480e5a0b0"><path d="M 26.503906 59.851562 L 545.011719 59.851562 L 545.011719 571.550781 L 26.503906 571.550781 Z M 26.503906 59.851562 " clip-rule="nonzero"/></clipPath><clipPath id="cd59314bc1"><rect x="0" width="600" y="0" height="600"/></clipPath></defs><g transform="matrix(1, 0, 0, 1, 0, -0.000000000000034788)"><g clip-path="url(#cd59314bc1)"><path fill="#ffffff" d="M 148.585938 0 L 451.40625 0 C 453.839844 0 456.269531 0.0585938 458.699219 0.179688 C 461.128906 0.296875 463.550781 0.476562 465.972656 0.714844 C 468.390625 0.953125 470.804688 1.25 473.210938 1.609375 C 475.613281 1.964844 478.011719 2.378906 480.394531 2.855469 C 482.78125 3.328125 485.152344 3.863281 487.511719 4.453125 C 489.871094 5.042969 492.210938 5.691406 494.539062 6.398438 C 496.867188 7.105469 499.175781 7.867188 501.464844 8.6875 C 503.753906 9.503906 506.023438 10.378906 508.269531 11.308594 C 510.515625 12.242188 512.738281 13.226562 514.9375 14.265625 C 517.132812 15.304688 519.304688 16.398438 521.449219 17.542969 C 523.59375 18.691406 525.710938 19.890625 527.796875 21.140625 C 529.882812 22.390625 531.933594 23.691406 533.957031 25.039062 C 535.980469 26.390625 537.964844 27.792969 539.917969 29.242188 C 541.871094 30.6875 543.789062 32.183594 545.667969 33.726562 C 547.546875 35.269531 549.390625 36.859375 551.191406 38.492188 C 552.992188 40.125 554.753906 41.800781 556.472656 43.519531 C 558.191406 45.238281 559.867188 47 561.5 48.800781 C 563.132812 50.601562 564.722656 52.445312 566.265625 54.324219 C 567.808594 56.203125 569.304688 58.121094 570.75 60.074219 C 572.199219 62.027344 573.601562 64.011719 574.949219 66.035156 C 576.300781 68.058594 577.601562 70.109375 578.851562 72.195312 C 580.101562 74.28125 581.300781 76.398438 582.449219 78.542969 C 583.59375 80.6875 584.6875 82.859375 585.726562 85.054688 C 586.765625 87.253906 587.75 89.476562 588.683594 91.722656 C 589.613281 93.96875 590.488281 96.238281 591.304688 98.527344 C 592.125 100.816406 592.886719 103.125 593.59375 105.453125 C 594.300781 107.78125 594.949219 110.121094 595.539062 112.480469 C 596.128906 114.839844 596.664062 117.210938 597.136719 119.597656 C 597.613281 121.980469 598.027344 124.378906 598.382812 126.78125 C 598.742188 129.1875 599.039062 131.601562 599.277344 134.019531 C 599.515625 136.441406 599.695312 138.863281 599.8125 141.292969 C 599.933594 143.722656 599.992188 146.152344 599.992188 148.585938 L 599.992188 451.40625 C 599.992188 453.839844 599.933594 456.269531 599.8125 458.699219 C 599.695312 461.128906 599.515625 463.550781 599.277344 465.972656 C 599.039062 468.390625 598.742188 470.804688 598.382812 473.210938 C 598.027344 475.613281 597.613281 478.011719 597.136719 480.394531 C 596.664062 482.78125 596.128906 485.152344 595.539062 487.511719 C 594.949219 489.871094 594.300781 492.210938 593.59375 494.539062 C 592.886719 496.867188 592.125 499.175781 591.304688 501.464844 C 590.488281 503.753906 589.613281 506.023438 588.683594 508.269531 C 587.75 510.515625 586.765625 512.738281 585.726562 514.9375 C 584.6875 517.132812 583.59375 519.304688 582.449219 521.449219 C 581.300781 523.59375 580.101562 525.710938 578.851562 527.796875 C 577.601562 529.882812 576.300781 531.933594 574.949219 533.957031 C 573.601562 535.980469 572.199219 537.964844 570.75 539.917969 C 569.304688 541.871094 567.808594 543.789062 566.265625 545.667969 C 564.722656 547.546875 563.132812 549.390625 561.5 551.191406 C 559.867188 552.992188 558.191406 554.753906 556.472656 556.472656 C 554.753906 558.191406 552.992188 559.867188 551.191406 561.5 C 549.390625 563.132812 547.546875 564.722656 545.667969 566.265625 C 543.789062 567.808594 541.871094 569.304688 539.917969 570.75 C 537.964844 572.199219 535.980469 573.601562 533.957031 574.949219 C 531.933594 576.300781 529.882812 577.601562 527.796875 578.851562 C 525.710938 580.101562 523.59375 581.300781 521.449219 582.449219 C 519.304688 583.59375 517.132812 584.6875 514.9375 585.726562 C 512.738281 586.765625 510.515625 587.75 508.269531 588.683594 C 506.023438 589.613281 503.753906 590.488281 501.464844 591.304688 C 499.175781 592.125 496.867188 592.886719 494.539062 593.59375 C 492.210938 594.300781 489.871094 594.949219 487.511719 595.539062 C 485.152344 596.128906 482.78125 596.664062 480.394531 597.136719 C 478.011719 597.613281 475.613281 598.027344 473.210938 598.382812 C 470.804688 598.742188 468.390625 599.039062 465.972656 599.277344 C 463.550781 599.515625 461.128906 599.695312 458.699219 599.8125 C 456.269531 599.933594 453.839844 599.992188 451.40625 599.992188 L 148.585938 599.992188 C 146.152344 599.992188 143.722656 599.933594 141.292969 599.8125 C 138.863281 599.695312 136.441406 599.515625 134.019531 599.277344 C 131.601562 599.039062 129.1875 598.742188 126.78125 598.382812 C 124.378906 598.027344 121.980469 597.613281 119.597656 597.136719 C 117.210938 596.664062 114.839844 596.128906 112.480469 595.539062 C 110.121094 594.949219 107.78125 594.300781 105.453125 593.59375 C 103.125 592.886719 100.816406 592.125 98.527344 591.304688 C 96.238281 590.488281 93.96875 589.613281 91.722656 588.683594 C 89.476562 587.75 87.253906 586.765625 85.054688 585.726562 C 82.859375 584.6875 80.6875 583.59375 78.542969 582.449219 C 76.398438 581.300781 74.28125 580.101562 72.195312 578.851562 C 70.109375 577.601562 68.058594 576.300781 66.035156 574.953125 C 64.011719 573.601562 62.027344 572.199219 60.074219 570.75 C 58.121094 569.304688 56.203125 567.808594 54.324219 566.265625 C 52.445312 564.722656 50.601562 563.132812 48.800781 561.5 C 47 559.867188 45.238281 558.191406 43.519531 556.472656 C 41.800781 554.753906 40.125 552.992188 38.492188 551.191406 C 36.859375 549.390625 35.269531 547.546875 33.726562 545.667969 C 32.183594 543.789062 30.6875 541.871094 29.242188 539.917969 C 27.792969 537.964844 26.390625 535.980469 25.039062 533.957031 C 23.691406 531.933594 22.390625 529.882812 21.140625 527.796875 C 19.890625 525.710938 18.691406 523.59375 17.542969 521.449219 C 16.398438 519.304688 15.304688 517.132812 14.265625 514.9375 C 13.226562 512.738281 12.242188 510.515625 11.308594 508.269531 C 10.378906 506.023438 9.503906 503.753906 8.6875 501.464844 C 7.867188 499.175781 7.105469 496.867188 6.398438 494.539062 C 5.691406 492.210938 5.042969 489.871094 4.453125 487.511719 C 3.863281 485.152344 3.328125 482.78125 2.855469 480.394531 C 2.378906 478.011719 1.964844 475.613281 1.609375 473.210938 C 1.25 470.804688 0.953125 468.390625 0.714844 465.972656 C 0.476562 463.550781 0.296875 461.128906 0.179688 458.699219 C 0.0585938 456.269531 0 453.839844 0 451.40625 L 0 148.585938 C 0 146.152344 0.0585938 143.722656 0.179688 141.292969 C 0.296875 138.863281 0.476562 136.441406 0.714844 134.019531 C 0.953125 131.601562 1.25 129.1875 1.609375 126.78125 C 1.964844 124.378906 2.378906 121.980469 2.855469 119.597656 C 3.328125 117.210938 3.863281 114.839844 4.453125 112.480469 C 5.042969 110.121094 5.691406 107.78125 6.398438 105.453125 C 7.105469 103.125 7.867188 100.816406 8.6875 98.527344 C 9.503906 96.238281 10.378906 93.96875 11.308594 91.722656 C 12.242188 89.476562 13.226562 87.253906 14.265625 85.054688 C 15.304688 82.859375 16.398438 80.6875 17.542969 78.542969 C 18.691406 76.398438 19.890625 74.28125 21.140625 72.195312 C 22.390625 70.109375 23.691406 68.058594 25.039062 66.035156 C 26.390625 64.011719 27.792969 62.027344 29.242188 60.074219 C 30.6875 58.121094 32.183594 56.203125 33.726562 54.324219 C 35.269531 52.445312 36.859375 50.601562 38.492188 48.800781 C 40.125 47 41.800781 45.238281 43.519531 43.519531 C 45.238281 41.800781 47 40.125 48.800781 38.492188 C 50.601562 36.859375 52.445312 35.269531 54.324219 33.726562 C 56.203125 32.183594 58.121094 30.6875 60.074219 29.242188 C 62.027344 27.792969 64.011719 26.390625 66.035156 25.039062 C 68.058594 23.691406 70.109375 22.390625 72.195312 21.140625 C 74.28125 19.890625 76.398438 18.691406 78.542969 17.542969 C 80.6875 16.398438 82.859375 15.304688 85.054688 14.265625 C 87.253906 13.226562 89.476562 12.242188 91.722656 11.308594 C 93.96875 10.378906 96.238281 9.503906 98.527344 8.6875 C 100.816406 7.867188 103.125 7.105469 105.453125 6.398438 C 107.78125 5.691406 110.121094 5.042969 112.480469 4.453125 C 114.839844 3.863281 117.210938 3.328125 119.597656 2.855469 C 121.980469 2.378906 124.378906 1.964844 126.78125 1.609375 C 129.1875 1.25 131.601562 0.953125 134.019531 0.714844 C 136.441406 0.476562 138.863281 0.296875 141.292969 0.179688 C 143.722656 0.0585938 146.152344 0 148.585938 0 Z M 148.585938 0 " fill-opacity="1" fill-rule="nonzero"/><g clip-path="url(#1fcfc4da42)"><path fill="#38b6ff" d="M 160.917969 24.4375 L 439.070312 24.4375 C 441.304688 24.4375 443.539062 24.492188 445.769531 24.601562 C 448 24.710938 450.226562 24.875 452.449219 25.09375 C 454.671875 25.3125 456.886719 25.585938 459.097656 25.914062 C 461.304688 26.242188 463.507812 26.621094 465.695312 27.058594 C 467.886719 27.492188 470.066406 27.984375 472.234375 28.527344 C 474.398438 29.070312 476.550781 29.664062 478.6875 30.3125 C 480.828125 30.960938 482.945312 31.660156 485.050781 32.414062 C 487.152344 33.167969 489.238281 33.96875 491.300781 34.824219 C 493.363281 35.679688 495.40625 36.585938 497.425781 37.539062 C 499.441406 38.496094 501.4375 39.5 503.40625 40.550781 C 505.378906 41.605469 507.320312 42.703125 509.234375 43.851562 C 511.152344 45 513.039062 46.195312 514.894531 47.4375 C 516.753906 48.679688 518.578125 49.964844 520.371094 51.292969 C 522.167969 52.625 523.925781 54 525.652344 55.414062 C 527.378906 56.832031 529.070312 58.289062 530.726562 59.789062 C 532.382812 61.289062 534 62.832031 535.578125 64.410156 C 537.15625 65.988281 538.695312 67.605469 540.195312 69.261719 C 541.695312 70.917969 543.15625 72.605469 544.570312 74.332031 C 545.988281 76.0625 547.363281 77.820312 548.691406 79.613281 C 550.023438 81.410156 551.308594 83.234375 552.550781 85.089844 C 553.792969 86.949219 554.984375 88.835938 556.132812 90.75 C 557.28125 92.667969 558.382812 94.609375 559.4375 96.578125 C 560.488281 98.550781 561.492188 100.542969 562.449219 102.5625 C 563.402344 104.582031 564.308594 106.625 565.164062 108.6875 C 566.015625 110.75 566.820312 112.835938 567.574219 114.9375 C 568.324219 117.039062 569.027344 119.160156 569.675781 121.296875 C 570.324219 123.433594 570.917969 125.585938 571.460938 127.753906 C 572.003906 129.921875 572.492188 132.097656 572.929688 134.289062 C 573.363281 136.480469 573.746094 138.679688 574.074219 140.890625 C 574.402344 143.101562 574.675781 145.316406 574.894531 147.539062 C 575.113281 149.761719 575.277344 151.988281 575.386719 154.21875 C 575.496094 156.449219 575.550781 158.683594 575.550781 160.917969 L 575.550781 439.070312 C 575.550781 441.304688 575.496094 443.539062 575.386719 445.769531 C 575.277344 448 575.113281 450.226562 574.894531 452.449219 C 574.675781 454.671875 574.402344 456.886719 574.074219 459.097656 C 573.746094 461.304688 573.363281 463.507812 572.929688 465.695312 C 572.492188 467.886719 572.003906 470.066406 571.460938 472.234375 C 570.917969 474.398438 570.324219 476.550781 569.675781 478.6875 C 569.027344 480.828125 568.324219 482.945312 567.574219 485.050781 C 566.820312 487.152344 566.015625 489.238281 565.164062 491.300781 C 564.308594 493.363281 563.402344 495.40625 562.449219 497.425781 C 561.492188 499.441406 560.488281 501.4375 559.4375 503.40625 C 558.382812 505.378906 557.28125 507.320312 556.132812 509.234375 C 554.984375 511.152344 553.792969 513.039062 552.550781 514.894531 C 551.308594 516.753906 550.023438 518.578125 548.691406 520.371094 C 547.363281 522.167969 545.988281 523.925781 544.570312 525.652344 C 543.15625 527.378906 541.695312 529.070312 540.195312 530.726562 C 538.695312 532.382812 537.15625 534 535.578125 535.578125 C 534 537.15625 532.382812 538.695312 530.726562 540.195312 C 529.070312 541.695312 527.378906 543.15625 525.652344 544.570312 C 523.925781 545.988281 522.167969 547.363281 520.371094 548.691406 C 518.578125 550.023438 516.753906 551.308594 514.894531 552.550781 C 513.039062 553.792969 511.152344 554.984375 509.234375 556.132812 C 507.320312 557.28125 505.378906 558.382812 503.40625 559.4375 C 501.4375 560.488281 499.441406 561.492188 497.425781 562.449219 C 495.40625 563.402344 493.363281 564.308594 491.300781 565.164062 C 489.238281 566.015625 487.152344 566.820312 485.050781 567.574219 C 482.945312 568.324219 480.828125 569.027344 478.6875 569.675781 C 476.550781 570.324219 474.398438 570.917969 472.234375 571.460938 C 470.066406 572.003906 467.886719 572.492188 465.695312 572.929688 C 463.507812 573.363281 461.304688 573.746094 459.097656 574.074219 C 456.886719 574.402344 454.671875 574.675781 452.449219 574.894531 C 450.226562 575.113281 448 575.277344 445.769531 575.386719 C 443.539062 575.496094 441.304688 575.550781 439.070312 575.550781 L 160.917969 575.550781 C 158.683594 575.550781 156.449219 575.496094 154.21875 575.386719 C 151.988281 575.277344 149.761719 575.113281 147.539062 574.894531 C 145.316406 574.675781 143.101562 574.402344 140.890625 574.074219 C 138.679688 573.746094 136.480469 573.363281 134.289062 572.929688 C 132.097656 572.492188 129.921875 572.003906 127.753906 571.460938 C 125.585938 570.917969 123.433594 570.324219 121.296875 569.675781 C 119.160156 569.027344 117.039062 568.324219 114.9375 567.574219 C 112.835938 566.820312 110.75 566.015625 108.6875 565.164062 C 106.625 564.308594 104.582031 563.402344 102.5625 562.449219 C 100.542969 561.492188 98.550781 560.488281 96.578125 559.4375 C 94.609375 558.382812 92.667969 557.28125 90.75 556.132812 C 88.835938 554.984375 86.949219 553.792969 85.089844 552.550781 C 83.234375 551.308594 81.410156 550.023438 79.613281 548.691406 C 77.820312 547.363281 76.058594 545.988281 74.332031 544.570312 C 72.605469 543.15625 70.917969 541.695312 69.261719 540.195312 C 67.605469 538.695312 65.988281 537.15625 64.410156 535.578125 C 62.832031 534 61.289062 532.382812 59.789062 530.726562 C 58.289062 529.070312 56.832031 527.378906 55.414062 525.652344 C 54 523.925781 52.625 522.167969 51.292969 520.371094 C 49.964844 518.578125 48.679688 516.753906 47.4375 514.894531 C 46.195312 513.039062 45 511.152344 43.851562 509.234375 C 42.703125 507.320312 41.605469 505.378906 40.550781 503.40625 C 39.5 501.4375 38.496094 499.441406 37.539062 497.425781 C 36.585938 495.40625 35.679688 493.363281 34.824219 491.300781 C 33.96875 489.238281 33.167969 487.152344 32.414062 485.050781 C 31.660156 482.945312 30.960938 480.828125 30.3125 478.6875 C 29.664062 476.550781 29.070312 474.398438 28.527344 472.234375 C 27.984375 470.066406 27.492188 467.886719 27.058594 465.695312 C 26.621094 463.507812 26.242188 461.304688 25.914062 459.097656 C 25.585938 456.886719 25.3125 454.671875 25.09375 452.449219 C 24.875 450.226562 24.710938 448 24.601562 445.769531 C 24.492188 443.539062 24.4375 441.304688 24.4375 439.070312 L 24.4375 160.917969 C 24.4375 158.683594 24.492188 156.449219 24.601562 154.21875 C 24.710938 151.988281 24.875 149.761719 25.09375 147.539062 C 25.3125 145.316406 25.585938 143.101562 25.914062 140.890625 C 26.242188 138.679688 26.621094 136.480469 27.058594 134.289062 C 27.492188 132.097656 27.984375 129.921875 28.527344 127.753906 C 29.070312 125.585938 29.664062 123.433594 30.3125 121.296875 C 30.960938 119.160156 31.660156 117.039062 32.414062 114.9375 C 33.167969 112.835938 33.96875 110.75 34.824219 108.6875 C 35.679688 106.625 36.585938 104.582031 37.539062 102.5625 C 38.496094 100.542969 39.5 98.550781 40.550781 96.578125 C 41.605469 94.609375 42.703125 92.667969 43.851562 90.75 C 45 88.835938 46.195312 86.949219 47.4375 85.089844 C 48.679688 83.234375 49.964844 81.410156 51.292969 79.613281 C 52.625 77.820312 54 76.0625 55.414062 74.332031 C 56.832031 72.605469 58.289062 70.917969 59.789062 69.261719 C 61.289062 67.605469 62.832031 65.988281 64.410156 64.410156 C 65.988281 62.832031 67.605469 61.289062 69.261719 59.789062 C 70.917969 58.289062 72.605469 56.832031 74.332031 55.414062 C 76.0625 54 77.820312 52.625 79.613281 51.292969 C 81.410156 49.964844 83.234375 48.679688 85.089844 47.4375 C 86.949219 46.195312 88.835938 45 90.75 43.851562 C 92.667969 42.703125 94.609375 41.605469 96.578125 40.550781 C 98.550781 39.5 100.542969 38.496094 102.5625 37.539062 C 104.582031 36.585938 106.625 35.679688 108.6875 34.824219 C 110.75 33.96875 112.835938 33.167969 114.9375 32.414062 C 117.039062 31.660156 119.160156 30.960938 121.296875 30.3125 C 123.433594 29.664062 125.585938 29.070312 127.753906 28.527344 C 129.921875 27.984375 132.097656 27.492188 134.289062 27.058594 C 136.480469 26.621094 138.679688 26.242188 140.890625 25.914062 C 143.101562 25.585938 145.316406 25.3125 147.539062 25.09375 C 149.761719 24.875 151.988281 24.710938 154.21875 24.601562 C 156.449219 24.492188 158.683594 24.4375 160.917969 24.4375 Z M 160.917969 24.4375 " fill-opacity="1" fill-rule="nonzero"/></g><g clip-path="url(#9480e5a0b0)"><path fill="#ffffff" d="M 397.757812 59.851562 C 316.222656 59.851562 250.308594 125.765625 250.308594 207.300781 C 250.308594 225.792969 254.6875 243.4375 260.84375 259.257812 L -2.902344 523.003906 C -26.160156 546.261719 -26.160156 584.703125 -2.902344 607.960938 C 20.355469 631.21875 58.796875 631.21875 82.054688 607.960938 L 345.800781 344.210938 C 361.941406 350.300781 379.136719 354.75 397.757812 354.75 C 479.289062 354.75 545.207031 288.832031 545.207031 207.300781 C 545.207031 191.191406 542.601562 175.082031 536.949219 160.957031 L 530.039062 143.65625 L 431.667969 242.027344 L 382.636719 222.417969 L 363.03125 173.390625 L 461.402344 75.019531 L 444.097656 68.105469 C 429.976562 62.457031 413.867188 59.851562 397.757812 59.851562 Z M 397.757812 84.425781 C 403.71875 84.425781 408.636719 86.449219 414.339844 87.328125 L 334.183594 167.484375 L 363.726562 241.328125 L 437.570312 270.871094 L 517.726562 190.714844 C 518.605469 196.417969 520.632812 201.339844 520.632812 207.300781 C 520.632812 275.671875 466.128906 330.171875 397.757812 330.171875 C 380.144531 330.171875 363.410156 325.769531 347.3125 318.871094 L 339.65625 315.605469 L 64.679688 590.585938 C 51.074219 604.1875 28.078125 604.1875 14.472656 590.585938 C 0.867188 576.980469 0.867188 553.984375 14.472656 540.378906 L 289.617188 265.234375 L 286.042969 257.433594 C 279.40625 243.054688 274.882812 224.910156 274.882812 207.300781 C 274.882812 138.925781 329.382812 84.425781 397.757812 84.425781 Z M 397.757812 84.425781 " fill-opacity="1" fill-rule="nonzero"/></g></g></g></svg>