<svg xmlns="http://www.w3.org/2000/svg" xmlns:xlink="http://www.w3.org/1999/xlink" width="336" zoomAndPan="magnify" viewBox="0 0 252 143.999998" height="192" preserveAspectRatio="xMidYMid meet" version="1.0"><defs><g/><clipPath id="ee6a3e5d0f"><path d="M 11.464844 37.367188 L 79.714844 37.367188 L 79.714844 105.617188 L 11.464844 105.617188 Z M 11.464844 37.367188 " clip-rule="nonzero"/></clipPath><clipPath id="2917d3a00d"><path d="M 14.234375 40.132812 L 76.484375 40.132812 L 76.484375 102.382812 L 14.234375 102.382812 Z M 14.234375 40.132812 " clip-rule="nonzero"/></clipPath><clipPath id="53df5ebce9"><path d="M 14.464844 44.144531 L 72.964844 44.144531 L 72.964844 101.894531 L 14.464844 101.894531 Z M 14.464844 44.144531 " clip-rule="nonzero"/></clipPath><clipPath id="af55d0c2ed"><path d="M 0.0390625 2 L 21 2 L 21 21 L 0.0390625 21 Z M 0.0390625 2 " clip-rule="nonzero"/></clipPath><clipPath id="e11eebcff3"><rect x="0" width="161" y="0" height="29"/></clipPath></defs><g clip-path="url(#ee6a3e5d0f)"><path fill="#ffffff" d="M 28.289062 37.367188 L 62.574219 37.367188 C 63.128906 37.367188 63.675781 37.394531 64.226562 37.445312 C 64.773438 37.5 65.316406 37.582031 65.859375 37.691406 C 66.398438 37.796875 66.933594 37.929688 67.460938 38.089844 C 67.988281 38.25 68.503906 38.4375 69.015625 38.648438 C 69.523438 38.859375 70.019531 39.09375 70.507812 39.351562 C 70.992188 39.613281 71.464844 39.894531 71.921875 40.203125 C 72.378906 40.507812 72.824219 40.835938 73.25 41.183594 C 73.675781 41.535156 74.082031 41.902344 74.472656 42.292969 C 74.863281 42.683594 75.230469 43.089844 75.582031 43.515625 C 75.929688 43.941406 76.257812 44.386719 76.5625 44.84375 C 76.871094 45.300781 77.152344 45.773438 77.414062 46.257812 C 77.671875 46.746094 77.90625 47.242188 78.117188 47.75 C 78.328125 48.261719 78.515625 48.777344 78.675781 49.304688 C 78.835938 49.832031 78.96875 50.367188 79.074219 50.90625 C 79.183594 51.449219 79.265625 51.992188 79.316406 52.539062 C 79.371094 53.089844 79.398438 53.636719 79.398438 54.191406 L 79.398438 88.476562 C 79.398438 89.027344 79.371094 89.578125 79.316406 90.125 C 79.265625 90.671875 79.183594 91.21875 79.074219 91.757812 C 78.96875 92.300781 78.835938 92.832031 78.675781 93.359375 C 78.515625 93.886719 78.328125 94.40625 78.117188 94.914062 C 77.90625 95.421875 77.671875 95.921875 77.414062 96.40625 C 77.152344 96.894531 76.871094 97.363281 76.5625 97.824219 C 76.257812 98.28125 75.929688 98.722656 75.582031 99.148438 C 75.230469 99.574219 74.863281 99.984375 74.472656 100.371094 C 74.082031 100.761719 73.675781 101.132812 73.25 101.480469 C 72.824219 101.832031 72.378906 102.160156 71.921875 102.464844 C 71.464844 102.769531 70.992188 103.054688 70.507812 103.3125 C 70.019531 103.574219 69.523438 103.808594 69.015625 104.019531 C 68.503906 104.230469 67.988281 104.414062 67.460938 104.574219 C 66.933594 104.734375 66.398438 104.867188 65.859375 104.976562 C 65.316406 105.085938 64.773438 105.164062 64.226562 105.21875 C 63.675781 105.273438 63.128906 105.300781 62.574219 105.300781 L 28.289062 105.300781 C 27.738281 105.300781 27.1875 105.273438 26.640625 105.21875 C 26.089844 105.164062 25.546875 105.085938 25.007812 104.976562 C 24.464844 104.867188 23.933594 104.734375 23.40625 104.574219 C 22.878906 104.414062 22.359375 104.230469 21.851562 104.019531 C 21.34375 103.808594 20.84375 103.574219 20.359375 103.3125 C 19.871094 103.054688 19.402344 102.769531 18.941406 102.464844 C 18.484375 102.160156 18.042969 101.832031 17.617188 101.480469 C 17.191406 101.132812 16.78125 100.761719 16.394531 100.371094 C 16.003906 99.984375 15.632812 99.574219 15.285156 99.148438 C 14.933594 98.722656 14.605469 98.28125 14.300781 97.824219 C 13.996094 97.363281 13.710938 96.894531 13.453125 96.40625 C 13.191406 95.921875 12.957031 95.421875 12.746094 94.914062 C 12.535156 94.40625 12.351562 93.886719 12.191406 93.359375 C 12.03125 92.832031 11.898438 92.300781 11.789062 91.757812 C 11.679688 91.21875 11.601562 90.671875 11.546875 90.125 C 11.492188 89.578125 11.464844 89.027344 11.464844 88.476562 L 11.464844 54.191406 C 11.464844 53.636719 11.492188 53.089844 11.546875 52.539062 C 11.601562 51.992188 11.679688 51.449219 11.789062 50.90625 C 11.898438 50.367188 12.03125 49.832031 12.191406 49.304688 C 12.351562 48.777344 12.535156 48.261719 12.746094 47.75 C 12.957031 47.242188 13.191406 46.746094 13.453125 46.257812 C 13.710938 45.773438 13.996094 45.300781 14.300781 44.84375 C 14.605469 44.386719 14.933594 43.941406 15.285156 43.515625 C 15.632812 43.089844 16.003906 42.683594 16.394531 42.292969 C 16.78125 41.902344 17.191406 41.535156 17.617188 41.183594 C 18.042969 40.835938 18.484375 40.507812 18.941406 40.203125 C 19.402344 39.894531 19.871094 39.613281 20.359375 39.351562 C 20.84375 39.09375 21.34375 38.859375 21.851562 38.648438 C 22.359375 38.4375 22.878906 38.25 23.40625 38.089844 C 23.933594 37.929688 24.464844 37.796875 25.007812 37.691406 C 25.546875 37.582031 26.089844 37.5 26.640625 37.445312 C 27.1875 37.394531 27.738281 37.367188 28.289062 37.367188 Z M 28.289062 37.367188 " fill-opacity="1" fill-rule="nonzero"/></g><g clip-path="url(#2917d3a00d)"><path fill="#38b6ff" d="M 29.6875 40.132812 L 61.179688 40.132812 C 62.195312 40.132812 63.199219 40.230469 64.195312 40.429688 C 65.191406 40.628906 66.15625 40.921875 67.09375 41.308594 C 68.03125 41.699219 68.921875 42.171875 69.765625 42.738281 C 70.609375 43.300781 71.390625 43.941406 72.109375 44.660156 C 72.828125 45.375 73.46875 46.15625 74.03125 47 C 74.59375 47.84375 75.070312 48.734375 75.457031 49.671875 C 75.847656 50.609375 76.140625 51.578125 76.339844 52.570312 C 76.535156 53.566406 76.636719 54.570312 76.636719 55.585938 L 76.636719 87.082031 C 76.636719 88.097656 76.535156 89.101562 76.339844 90.097656 C 76.140625 91.09375 75.847656 92.058594 75.457031 92.996094 C 75.070312 93.933594 74.59375 94.824219 74.03125 95.667969 C 73.46875 96.511719 72.828125 97.292969 72.109375 98.007812 C 71.390625 98.726562 70.609375 99.367188 69.765625 99.929688 C 68.921875 100.496094 68.03125 100.972656 67.09375 101.359375 C 66.15625 101.746094 65.191406 102.039062 64.195312 102.238281 C 63.199219 102.4375 62.195312 102.535156 61.179688 102.535156 L 29.6875 102.535156 C 28.671875 102.535156 27.667969 102.4375 26.671875 102.238281 C 25.675781 102.039062 24.710938 101.746094 23.773438 101.359375 C 22.835938 100.972656 21.945312 100.496094 21.101562 99.929688 C 20.257812 99.367188 19.476562 98.726562 18.757812 98.007812 C 18.042969 97.292969 17.402344 96.511719 16.835938 95.667969 C 16.273438 94.824219 15.796875 93.933594 15.410156 92.996094 C 15.019531 92.058594 14.726562 91.09375 14.53125 90.097656 C 14.332031 89.101562 14.234375 88.097656 14.234375 87.082031 L 14.234375 55.585938 C 14.234375 54.570312 14.332031 53.566406 14.53125 52.570312 C 14.726562 51.578125 15.019531 50.609375 15.410156 49.671875 C 15.796875 48.734375 16.273438 47.84375 16.835938 47 C 17.402344 46.15625 18.042969 45.375 18.757812 44.660156 C 19.476562 43.941406 20.257812 43.300781 21.101562 42.738281 C 21.945312 42.171875 22.835938 41.699219 23.773438 41.308594 C 24.710938 40.921875 25.675781 40.628906 26.671875 40.429688 C 27.667969 40.230469 28.671875 40.132812 29.6875 40.132812 Z M 29.6875 40.132812 " fill-opacity="1" fill-rule="nonzero"/></g><g clip-path="url(#53df5ebce9)"><path fill="#ffffff" d="M 56.496094 44.144531 C 47.265625 44.144531 39.804688 51.605469 39.804688 60.835938 C 39.804688 62.929688 40.300781 64.929688 40.996094 66.71875 L 11.136719 96.578125 C 8.503906 99.210938 8.503906 103.566406 11.136719 106.199219 C 13.769531 108.832031 18.121094 108.832031 20.753906 106.199219 L 50.617188 76.335938 C 52.441406 77.027344 54.390625 77.53125 56.496094 77.53125 C 65.730469 77.53125 73.191406 70.066406 73.191406 60.835938 C 73.191406 59.011719 72.894531 57.1875 72.257812 55.589844 L 71.472656 53.632812 L 60.335938 64.769531 L 54.785156 62.546875 L 52.566406 56.996094 L 63.703125 45.859375 L 61.746094 45.078125 C 60.144531 44.4375 58.320312 44.144531 56.496094 44.144531 Z M 56.496094 46.925781 C 57.171875 46.925781 57.730469 47.15625 58.375 47.253906 L 49.300781 56.328125 L 52.644531 64.691406 L 61.003906 68.035156 L 70.082031 58.960938 C 70.179688 59.605469 70.410156 60.160156 70.410156 60.835938 C 70.410156 68.578125 64.238281 74.75 56.496094 74.75 C 54.503906 74.75 52.609375 74.25 50.785156 73.46875 L 49.917969 73.097656 L 18.789062 104.230469 C 17.246094 105.769531 14.644531 105.769531 13.105469 104.230469 C 11.5625 102.691406 11.5625 100.085938 13.105469 98.546875 L 44.253906 67.394531 L 43.851562 66.511719 C 43.097656 64.886719 42.585938 62.832031 42.585938 60.835938 C 42.585938 53.097656 48.757812 46.925781 56.496094 46.925781 Z M 56.496094 46.925781 " fill-opacity="1" fill-rule="nonzero"/></g><g transform="matrix(1, 0, 0, 1, 83, 61)"><g clip-path="url(#e11eebcff3)"><g clip-path="url(#af55d0c2ed)"><g fill="#38b6ff" fill-opacity="1"><g transform="translate(0.149406, 20.071315)"><g><path d="M 16.234375 0 L 15.375 -10.703125 L 15.265625 -10.703125 L 11.578125 -0.109375 L 9.125 -0.109375 L 5.421875 -10.703125 L 5.3125 -10.703125 L 4.46875 0 L 0.34375 0 L 1.96875 -18.046875 L 6.34375 -18.046875 L 10.34375 -7.640625 L 14.34375 -18.046875 L 18.71875 -18.046875 L 20.34375 0 Z M 16.234375 0 "/></g></g></g></g><g fill="#38b6ff" fill-opacity="1"><g transform="translate(20.844944, 20.071315)"><g><path d="M 12.671875 -5.078125 L 4.53125 -5.078125 C 4.53125 -4.285156 4.785156 -3.695312 5.296875 -3.3125 C 5.804688 -2.9375 6.359375 -2.75 6.953125 -2.75 C 7.578125 -2.75 8.070312 -2.832031 8.4375 -3 C 8.800781 -3.175781 9.21875 -3.507812 9.6875 -4 L 12.484375 -2.609375 C 11.316406 -0.648438 9.378906 0.328125 6.671875 0.328125 C 4.984375 0.328125 3.53125 -0.25 2.3125 -1.40625 C 1.101562 -2.570312 0.5 -3.96875 0.5 -5.59375 C 0.5 -7.226562 1.101562 -8.628906 2.3125 -9.796875 C 3.53125 -10.960938 4.984375 -11.546875 6.671875 -11.546875 C 8.453125 -11.546875 9.898438 -11.03125 11.015625 -10 C 12.128906 -8.976562 12.6875 -7.507812 12.6875 -5.59375 C 12.6875 -5.332031 12.679688 -5.160156 12.671875 -5.078125 Z M 4.640625 -7.21875 L 8.90625 -7.21875 C 8.8125 -7.800781 8.578125 -8.25 8.203125 -8.5625 C 7.835938 -8.875 7.363281 -9.03125 6.78125 -9.03125 C 6.132812 -9.03125 5.625 -8.863281 5.25 -8.53125 C 4.875 -8.195312 4.671875 -7.757812 4.640625 -7.21875 Z M 4.640625 -7.21875 "/></g></g></g><g fill="#38b6ff" fill-opacity="1"><g transform="translate(34.036707, 20.071315)"><g><path d="M 4.96875 -11.21875 L 4.96875 -5.890625 C 4.96875 -4.773438 5.132812 -3.984375 5.46875 -3.515625 C 5.800781 -3.054688 6.367188 -2.828125 7.171875 -2.828125 C 7.972656 -2.828125 8.539062 -3.054688 8.875 -3.515625 C 9.21875 -3.984375 9.390625 -4.773438 9.390625 -5.890625 L 9.390625 -11.21875 L 13.25 -11.21875 L 13.25 -4.9375 C 13.25 -3.070312 12.765625 -1.726562 11.796875 -0.90625 C 10.828125 -0.0820312 9.285156 0.328125 7.171875 0.328125 C 5.054688 0.328125 3.515625 -0.0820312 2.546875 -0.90625 C 1.578125 -1.726562 1.09375 -3.070312 1.09375 -4.9375 L 1.09375 -11.21875 Z M 4.96875 -11.21875 "/></g></g></g><g fill="#38b6ff" fill-opacity="1"><g transform="translate(48.387947, 20.071315)"><g/></g></g><g fill="#38b6ff" fill-opacity="1"><g transform="translate(54.360339, 20.071315)"><g><path d="M 16.234375 0 L 15.375 -10.703125 L 15.265625 -10.703125 L 11.578125 -0.109375 L 9.125 -0.109375 L 5.421875 -10.703125 L 5.3125 -10.703125 L 4.46875 0 L 0.34375 0 L 1.96875 -18.046875 L 6.34375 -18.046875 L 10.34375 -7.640625 L 14.34375 -18.046875 L 18.71875 -18.046875 L 20.34375 0 Z M 16.234375 0 "/></g></g></g><g fill="#38b6ff" fill-opacity="1"><g transform="translate(75.055876, 20.071315)"><g><path d="M 12.671875 -5.078125 L 4.53125 -5.078125 C 4.53125 -4.285156 4.785156 -3.695312 5.296875 -3.3125 C 5.804688 -2.9375 6.359375 -2.75 6.953125 -2.75 C 7.578125 -2.75 8.070312 -2.832031 8.4375 -3 C 8.800781 -3.175781 9.21875 -3.507812 9.6875 -4 L 12.484375 -2.609375 C 11.316406 -0.648438 9.378906 0.328125 6.671875 0.328125 C 4.984375 0.328125 3.53125 -0.25 2.3125 -1.40625 C 1.101562 -2.570312 0.5 -3.96875 0.5 -5.59375 C 0.5 -7.226562 1.101562 -8.628906 2.3125 -9.796875 C 3.53125 -10.960938 4.984375 -11.546875 6.671875 -11.546875 C 8.453125 -11.546875 9.898438 -11.03125 11.015625 -10 C 12.128906 -8.976562 12.6875 -7.507812 12.6875 -5.59375 C 12.6875 -5.332031 12.679688 -5.160156 12.671875 -5.078125 Z M 4.640625 -7.21875 L 8.90625 -7.21875 C 8.8125 -7.800781 8.578125 -8.25 8.203125 -8.5625 C 7.835938 -8.875 7.363281 -9.03125 6.78125 -9.03125 C 6.132812 -9.03125 5.625 -8.863281 5.25 -8.53125 C 4.875 -8.195312 4.671875 -7.757812 4.640625 -7.21875 Z M 4.640625 -7.21875 "/></g></g></g><g fill="#38b6ff" fill-opacity="1"><g transform="translate(88.247645, 20.071315)"><g><path d="M 7.28125 -8.375 C 6.550781 -8.375 5.921875 -8.101562 5.390625 -7.5625 C 4.867188 -7.03125 4.609375 -6.382812 4.609375 -5.625 C 4.609375 -4.851562 4.867188 -4.195312 5.390625 -3.65625 C 5.921875 -3.113281 6.550781 -2.84375 7.28125 -2.84375 C 7.632812 -2.84375 7.96875 -2.882812 8.28125 -2.96875 C 8.59375 -3.0625 8.820312 -3.148438 8.96875 -3.234375 L 9.171875 -3.375 L 10.484375 -0.671875 C 10.378906 -0.597656 10.234375 -0.503906 10.046875 -0.390625 C 9.867188 -0.285156 9.453125 -0.140625 8.796875 0.046875 C 8.148438 0.234375 7.457031 0.328125 6.71875 0.328125 C 5.070312 0.328125 3.625 -0.25 2.375 -1.40625 C 1.125 -2.570312 0.5 -3.960938 0.5 -5.578125 C 0.5 -7.210938 1.125 -8.613281 2.375 -9.78125 C 3.625 -10.957031 5.070312 -11.546875 6.71875 -11.546875 C 7.457031 -11.546875 8.140625 -11.457031 8.765625 -11.28125 C 9.398438 -11.113281 9.847656 -10.941406 10.109375 -10.765625 L 10.484375 -10.5 L 9.171875 -7.859375 C 8.679688 -8.203125 8.050781 -8.375 7.28125 -8.375 Z M 7.28125 -8.375 "/></g></g></g><g fill="#38b6ff" fill-opacity="1"><g transform="translate(98.879807, 20.071315)"><g><path d="M 2.625 -14.828125 L 7.453125 -18.375 L 12.296875 -14.828125 L 10.8125 -12.84375 L 7.453125 -15.296875 L 4.109375 -12.84375 Z M 2.078125 -9.8125 C 1.023438 -8.664062 0.5 -7.257812 0.5 -5.59375 C 0.5 -3.9375 1.023438 -2.535156 2.078125 -1.390625 C 3.128906 -0.242188 4.460938 0.328125 6.078125 0.328125 C 7.566406 0.328125 8.789062 -0.203125 9.75 -1.265625 L 9.796875 -1.265625 L 9.796875 0 L 13.625 0 L 13.625 -11.21875 L 9.75 -11.21875 L 9.75 -10.15625 C 8.789062 -11.082031 7.566406 -11.546875 6.078125 -11.546875 C 4.460938 -11.546875 3.128906 -10.96875 2.078125 -9.8125 Z M 5.328125 -3.703125 C 4.847656 -4.191406 4.609375 -4.820312 4.609375 -5.59375 C 4.609375 -6.375 4.859375 -7.007812 5.359375 -7.5 C 5.867188 -8 6.492188 -8.25 7.234375 -8.25 C 7.960938 -8.25 8.578125 -8 9.078125 -7.5 C 9.585938 -7.007812 9.84375 -6.375 9.84375 -5.59375 C 9.84375 -4.84375 9.597656 -4.21875 9.109375 -3.71875 C 8.617188 -3.21875 7.992188 -2.96875 7.234375 -2.96875 C 6.453125 -2.96875 5.816406 -3.210938 5.328125 -3.703125 Z M 5.328125 -3.703125 "/></g></g></g><g fill="#38b6ff" fill-opacity="1"><g transform="translate(113.821727, 20.071315)"><g><path d="M 1.3125 0 L 1.3125 -11.21875 L 5.1875 -11.21875 L 5.1875 -10.046875 L 5.234375 -10.046875 C 6.234375 -11.046875 7.300781 -11.546875 8.4375 -11.546875 C 9 -11.546875 9.550781 -11.472656 10.09375 -11.328125 C 10.644531 -11.179688 11.171875 -10.953125 11.671875 -10.640625 C 12.171875 -10.335938 12.578125 -9.90625 12.890625 -9.34375 C 13.203125 -8.789062 13.359375 -8.140625 13.359375 -7.390625 L 13.359375 0 L 9.5 0 L 9.5 -6.34375 C 9.5 -6.925781 9.3125 -7.4375 8.9375 -7.875 C 8.5625 -8.3125 8.078125 -8.53125 7.484375 -8.53125 C 6.898438 -8.53125 6.367188 -8.300781 5.890625 -7.84375 C 5.421875 -7.394531 5.1875 -6.894531 5.1875 -6.34375 L 5.1875 0 Z M 1.3125 0 "/></g></g></g><g fill="#38b6ff" fill-opacity="1"><g transform="translate(128.282347, 20.071315)"><g><path d="M 1.671875 -17.46875 C 2.128906 -17.925781 2.671875 -18.15625 3.296875 -18.15625 C 3.929688 -18.15625 4.472656 -17.925781 4.921875 -17.46875 C 5.367188 -17.019531 5.59375 -16.484375 5.59375 -15.859375 C 5.59375 -15.234375 5.367188 -14.691406 4.921875 -14.234375 C 4.472656 -13.785156 3.929688 -13.5625 3.296875 -13.5625 C 2.671875 -13.5625 2.128906 -13.785156 1.671875 -14.234375 C 1.222656 -14.691406 1 -15.234375 1 -15.859375 C 1 -16.484375 1.222656 -17.019531 1.671875 -17.46875 Z M 1.3125 -11.21875 L 1.3125 0 L 5.1875 0 L 5.1875 -11.21875 Z M 1.3125 -11.21875 "/></g></g></g><g fill="#38b6ff" fill-opacity="1"><g transform="translate(134.889172, 20.071315)"><g><path d="M 7.28125 -8.375 C 6.550781 -8.375 5.921875 -8.101562 5.390625 -7.5625 C 4.867188 -7.03125 4.609375 -6.382812 4.609375 -5.625 C 4.609375 -4.851562 4.867188 -4.195312 5.390625 -3.65625 C 5.921875 -3.113281 6.550781 -2.84375 7.28125 -2.84375 C 7.632812 -2.84375 7.96875 -2.882812 8.28125 -2.96875 C 8.59375 -3.0625 8.820312 -3.148438 8.96875 -3.234375 L 9.171875 -3.375 L 10.484375 -0.671875 C 10.378906 -0.597656 10.234375 -0.503906 10.046875 -0.390625 C 9.867188 -0.285156 9.453125 -0.140625 8.796875 0.046875 C 8.148438 0.234375 7.457031 0.328125 6.71875 0.328125 C 5.070312 0.328125 3.625 -0.25 2.375 -1.40625 C 1.125 -2.570312 0.5 -3.960938 0.5 -5.578125 C 0.5 -7.210938 1.125 -8.613281 2.375 -9.78125 C 3.625 -10.957031 5.070312 -11.546875 6.71875 -11.546875 C 7.457031 -11.546875 8.140625 -11.457031 8.765625 -11.28125 C 9.398438 -11.113281 9.847656 -10.941406 10.109375 -10.765625 L 10.484375 -10.5 L 9.171875 -7.859375 C 8.679688 -8.203125 8.050781 -8.375 7.28125 -8.375 Z M 7.28125 -8.375 "/></g></g></g><g fill="#38b6ff" fill-opacity="1"><g transform="translate(145.630722, 20.071315)"><g><path d="M 2.375 -1.328125 C 1.125 -2.441406 0.5 -3.863281 0.5 -5.59375 C 0.5 -7.332031 1.144531 -8.757812 2.4375 -9.875 C 3.738281 -10.988281 5.347656 -11.546875 7.265625 -11.546875 C 9.140625 -11.546875 10.722656 -10.984375 12.015625 -9.859375 C 13.304688 -8.742188 13.953125 -7.320312 13.953125 -5.59375 C 13.953125 -3.875 13.320312 -2.457031 12.0625 -1.34375 C 10.800781 -0.226562 9.203125 0.328125 7.265625 0.328125 C 5.253906 0.328125 3.625 -0.222656 2.375 -1.328125 Z M 5.359375 -7.5 C 4.859375 -7.007812 4.609375 -6.375 4.609375 -5.59375 C 4.609375 -4.820312 4.847656 -4.191406 5.328125 -3.703125 C 5.816406 -3.210938 6.453125 -2.96875 7.234375 -2.96875 C 7.992188 -2.96875 8.617188 -3.21875 9.109375 -3.71875 C 9.597656 -4.21875 9.84375 -4.84375 9.84375 -5.59375 C 9.84375 -6.375 9.585938 -7.007812 9.078125 -7.5 C 8.578125 -8 7.960938 -8.25 7.234375 -8.25 C 6.492188 -8.25 5.867188 -8 5.359375 -7.5 Z M 5.359375 -7.5 "/></g></g></g></g></g></svg>